<svg xmlns="http://www.w3.org/2000/svg" xmlns:xlink="http://www.w3.org/1999/xlink" width="20" height="20" viewBox="0 0 20 20">
  <metadata><?xpacket begin="﻿" id="W5M0MpCehiHzreSzNTczkc9d"?>
<x:xmpmeta xmlns:x="adobe:ns:meta/" x:xmptk="Adobe XMP Core 5.6-c142 79.160924, 2017/07/13-01:06:39        ">
   <rdf:RDF xmlns:rdf="http://www.w3.org/1999/02/22-rdf-syntax-ns#">
      <rdf:Description rdf:about=""/>
   </rdf:RDF>
</x:xmpmeta>
                                                                                                    
                                                                                                    
                                                                                                    
                                                                                                    
                                                                                                    
                                                                                                    
                                                                                                    
                                                                                                    
                                                                                                    
                                                                                                    
                                                                                                    
                                                                                                    
                                                                                                    
                                                                                                    
                                                                                                    
                                                                                                    
                                                                                                    
                                                                                                    
                                                                                                    
                                                                                                    
                           
<?xpacket end="w"?></metadata>
<defs>
    <style>
      .cls-1 {
        fill-rule: evenodd;
        filter: url(#filter);
      }
    </style>
    <filter id="filter" x="222" y="3218" width="20" height="20" filterUnits="userSpaceOnUse">
      <feFlood result="flood" flood-color="#0061ff"/>
      <feComposite result="composite" operator="in" in2="SourceGraphic"/>
      <feBlend result="blend" in2="SourceGraphic"/>
    </filter>
  </defs>
  <path id="Forma_1" data-name="Forma 1" class="cls-1" d="M230.416,3226.33a0.614,0.614,0,0,0-.521-0.76h-2.142v1.64h2.01C230.11,3227.21,230.416,3227.1,230.416,3226.33Zm4.964,0.88a1.313,1.313,0,0,0-1.295,1.13H236.5A1.092,1.092,0,0,0,235.38,3227.21Zm-5.485,1.13h-2.141v1.97h2.033a0.829,0.829,0,0,0,.885-0.96A0.846,0.846,0,0,0,229.9,3228.34ZM232,3218a10,10,0,1,0,10,10A10.013,10.013,0,0,0,232,3218Zm1.769,6.69H236.8v0.91h-3.036v-0.91Zm-1.535,4.76a2.185,2.185,0,0,1-2.338,2.17h-3.828v-7.36H229.9a1.879,1.879,0,0,1,2.083,1.96,1.274,1.274,0,0,1-1.123,1.4C232.335,3227.62,232.233,3229.45,232.233,3229.45Zm5.68-.12H234.1a1.2,1.2,0,0,0,1.3,1.28c1.223,0,1.18-.8,1.18-0.8h1.3c0,2.11-2.518,1.96-2.518,1.96a2.609,2.609,0,0,1-2.827-2.81,2.768,2.768,0,0,1,2.827-2.83C238.331,3226.13,237.913,3229.33,237.913,3229.33Z" transform="translate(-222 -3218)"/>
</svg>
