<svg xmlns="http://www.w3.org/2000/svg" xmlns:xlink="http://www.w3.org/1999/xlink" width="20" height="20" viewBox="0 0 20 20">
  <metadata><?xpacket begin="﻿" id="W5M0MpCehiHzreSzNTczkc9d"?>
<x:xmpmeta xmlns:x="adobe:ns:meta/" x:xmptk="Adobe XMP Core 5.6-c142 79.160924, 2017/07/13-01:06:39        ">
   <rdf:RDF xmlns:rdf="http://www.w3.org/1999/02/22-rdf-syntax-ns#">
      <rdf:Description rdf:about=""/>
   </rdf:RDF>
</x:xmpmeta>
                                                                                                    
                                                                                                    
                                                                                                    
                                                                                                    
                                                                                                    
                                                                                                    
                                                                                                    
                                                                                                    
                                                                                                    
                                                                                                    
                                                                                                    
                                                                                                    
                                                                                                    
                                                                                                    
                                                                                                    
                                                                                                    
                                                                                                    
                                                                                                    
                                                                                                    
                                                                                                    
                           
<?xpacket end="w"?></metadata>
<defs>
    <style>
      .cls-1 {
        fill-rule: evenodd;
        filter: url(#filter);
      }
    </style>
    <filter id="filter" x="195" y="3218" width="20" height="20" filterUnits="userSpaceOnUse">
      <feFlood result="flood" flood-color="#ea4c89"/>
      <feComposite result="composite" operator="in" in2="SourceGraphic"/>
      <feBlend result="blend" in2="SourceGraphic"/>
    </filter>
  </defs>
  <path id="Forma_1" data-name="Forma 1" class="cls-1" d="M205,3218a10,10,0,1,0,10,10A10.014,10.014,0,0,0,205,3218Zm6.579,4.72a8.4,8.4,0,0,1,1.867,5.15,20.621,20.621,0,0,0-3.909-.38,15.913,15.913,0,0,0-1.925.11c-0.056-.13-0.111-0.26-0.169-0.4-0.17-.4-0.352-0.79-0.542-1.18A11.529,11.529,0,0,0,211.579,3222.72ZM205,3219.56a8.442,8.442,0,0,1,5.566,2.1,9.593,9.593,0,0,1-4.364,3,46.9,46.9,0,0,0-3.107-4.88A8.538,8.538,0,0,1,205,3219.56Zm-3.629.83a54.837,54.837,0,0,1,3.091,4.81,31.756,31.756,0,0,1-7.636,1.02h-0.082A8.464,8.464,0,0,1,201.371,3220.39Zm-4.819,7.62q0-.105,0-0.21c0.051,0,.125.01,0.222,0.01a31.475,31.475,0,0,0,8.437-1.21c0.228,0.45.445,0.9,0.646,1.35l-0.281.09a13.491,13.491,0,0,0-6.9,5.57A8.4,8.4,0,0,1,196.552,3228.01Zm8.448,8.45a8.42,8.42,0,0,1-5.153-1.76,11.68,11.68,0,0,1,6.62-5.24s0.007,0,.01-0.01a35.537,35.537,0,0,1,1.786,6.35A8.263,8.263,0,0,1,205,3236.46Zm4.784-1.49a36.894,36.894,0,0,0-1.619-5.93,11.318,11.318,0,0,1,1.7-.13,12.4,12.4,0,0,1,3.468.49A8.453,8.453,0,0,1,209.784,3234.97Z" transform="translate(-195 -3218)"/>
</svg>
