<svg xmlns="http://www.w3.org/2000/svg" xmlns:xlink="http://www.w3.org/1999/xlink" width="20" height="20" viewBox="0 0 20 20">
  <metadata><?xpacket begin="﻿" id="W5M0MpCehiHzreSzNTczkc9d"?>
<x:xmpmeta xmlns:x="adobe:ns:meta/" x:xmptk="Adobe XMP Core 5.6-c142 79.160924, 2017/07/13-01:06:39        ">
   <rdf:RDF xmlns:rdf="http://www.w3.org/1999/02/22-rdf-syntax-ns#">
      <rdf:Description rdf:about=""/>
   </rdf:RDF>
</x:xmpmeta>
                                                                                                    
                                                                                                    
                                                                                                    
                                                                                                    
                                                                                                    
                                                                                                    
                                                                                                    
                                                                                                    
                                                                                                    
                                                                                                    
                                                                                                    
                                                                                                    
                                                                                                    
                                                                                                    
                                                                                                    
                                                                                                    
                                                                                                    
                                                                                                    
                                                                                                    
                                                                                                    
                           
<?xpacket end="w"?></metadata>
<defs>
    <style>
      .cls-1 {
        fill-rule: evenodd;
        filter: url(#filter);
      }
    </style>
    <filter id="filter" x="249" y="3218" width="20" height="20" filterUnits="userSpaceOnUse">
      <feFlood result="flood" flood-color="#00aced"/>
      <feComposite result="composite" operator="in" in2="SourceGraphic"/>
      <feBlend result="blend" in2="SourceGraphic"/>
    </filter>
  </defs>
  <path id="Forma_1" data-name="Forma 1" class="cls-1" d="M259,3218a10,10,0,1,0,10,10A10,10,0,0,0,259,3218Zm4.976,7.75,0.007,0.32a7,7,0,0,1-10.78,5.9,5.69,5.69,0,0,0,.588.04,4.943,4.943,0,0,0,3.057-1.06,2.461,2.461,0,0,1-2.3-1.71,2.363,2.363,0,0,0,.464.05,2.311,2.311,0,0,0,.648-0.09,2.465,2.465,0,0,1-1.975-2.41v-0.03a2.467,2.467,0,0,0,1.115.3,2.449,2.449,0,0,1-1.095-2.04,2.424,2.424,0,0,1,.333-1.24,6.975,6.975,0,0,0,5.074,2.57,2.463,2.463,0,0,1,4.2-2.24,5.235,5.235,0,0,0,1.564-.6,2.464,2.464,0,0,1-1.083,1.36,4.814,4.814,0,0,0,1.414-.39A4.794,4.794,0,0,1,263.976,3225.75Z" transform="translate(-249 -3218)"/>
</svg>
